<svg width="335" height="115" viewBox="0 0 335 115" fill="none" xmlns="http://www.w3.org/2000/svg">
<rect width="335" height="115" rx="9.80787" fill="#F5F5F5"/>
<path d="M203.821 44.334H120.027V105.743H203.821V44.334Z" fill="#E0CEFF"/>
<path d="M172.675 37.9766H203.783L203.789 44.3343H170.896L172.675 37.9766Z" fill="#E0CEFF"/>
<g opacity="0.2">
<path d="M203.821 44.3337H120.027V105.743H203.821V44.3337Z" fill="black"/>
<path d="M172.674 37.9761H203.782L203.788 44.3339H170.896L172.674 37.9761Z" fill="black"/>
</g>
<path d="M153.957 50.0092L131.796 54.2092L126.449 25.5028L142.904 22.3872L149.625 26.7688L153.957 50.0092Z" fill="#EBEBEB"/>
<path d="M142.902 22.3872L149.624 26.7688L143.917 27.8532L142.902 22.3872Z" fill="#DBDBDB"/>
<path d="M129.65 30.6408L141.972 28.3052L141.835 27.5687L129.513 29.9044L129.65 30.6408Z" fill="#DBDBDB"/>
<path d="M129.991 32.5048L142.313 30.1692L142.176 29.4327L129.854 31.7684L129.991 32.5048Z" fill="#DBDBDB"/>
<path d="M130.345 34.3625L142.667 32.0269L142.53 31.2904L130.208 33.6261L130.345 34.3625Z" fill="#DBDBDB"/>
<path d="M130.694 36.22L148.748 32.7979L148.611 32.0614L130.557 35.4836L130.694 36.22Z" fill="#DBDBDB"/>
<path d="M131.036 38.0784L149.09 34.6562L148.953 33.9198L130.899 37.342L131.036 38.0784Z" fill="#DBDBDB"/>
<path d="M131.383 39.9361L149.438 36.5139L149.3 35.7775L131.246 39.1997L131.383 39.9361Z" fill="#DBDBDB"/>
<path d="M131.732 41.8055L149.786 38.3833L149.649 37.6469L131.595 41.069L131.732 41.8055Z" fill="#DBDBDB"/>
<path d="M139.084 45.589L138.38 45.7211L138.827 48.0991C138.834 48.1317 138.833 48.1652 138.826 48.1977C138.82 48.2301 138.806 48.2609 138.788 48.2881C138.769 48.3153 138.745 48.3384 138.717 48.3561C138.689 48.3737 138.658 48.3855 138.625 48.3908C138.594 48.3972 138.561 48.397 138.53 48.3904C138.498 48.3838 138.468 48.3709 138.442 48.3524C138.415 48.3339 138.393 48.3103 138.376 48.2828C138.358 48.2554 138.347 48.2247 138.342 48.1927L137.894 45.8147L137.196 45.9468C137.131 45.9566 137.065 45.941 137.011 45.9031C136.957 45.8652 136.92 45.8079 136.907 45.7431C136.901 45.7105 136.901 45.677 136.908 45.6446C136.914 45.6121 136.928 45.5813 136.947 45.5541C136.965 45.5269 136.989 45.5038 137.017 45.4862C137.045 45.4685 137.076 45.4567 137.109 45.4514L138.991 45.0936C139.023 45.0872 139.056 45.0873 139.088 45.0938C139.119 45.1004 139.15 45.1132 139.177 45.1317C139.203 45.1501 139.226 45.1737 139.244 45.2012C139.262 45.2287 139.274 45.2595 139.28 45.2918C139.291 45.3573 139.277 45.4247 139.241 45.4801C139.204 45.5354 139.148 45.5744 139.084 45.589Z" fill="#DBDBDB"/>
<path d="M142.259 44.9122L141.631 46.2223L142.684 47.2186C142.707 47.2416 142.726 47.2691 142.738 47.2993C142.751 47.3295 142.757 47.362 142.757 47.3947C142.757 47.4275 142.751 47.4599 142.738 47.4902C142.726 47.5204 142.707 47.5478 142.684 47.5709C142.649 47.6088 142.603 47.6356 142.553 47.648C142.514 47.6542 142.474 47.6516 142.437 47.6401C142.399 47.6287 142.364 47.6088 142.335 47.5819L141.402 46.6901L140.856 47.8626C140.841 47.8983 140.817 47.9295 140.786 47.9535C140.756 47.9775 140.72 47.9936 140.682 48.0002C140.635 48.0195 140.582 48.0195 140.535 48.0002C140.505 47.9878 140.478 47.9693 140.456 47.9459C140.433 47.9225 140.416 47.8947 140.404 47.8642C140.393 47.8338 140.388 47.8013 140.39 47.7688C140.392 47.7363 140.4 47.7045 140.415 47.6755L141.037 46.3544L139.984 45.3635C139.961 45.341 139.942 45.314 139.93 45.2842C139.918 45.2545 139.911 45.2225 139.911 45.1902C139.911 45.1578 139.918 45.1259 139.93 45.0961C139.942 45.0663 139.961 45.0393 139.984 45.0168C140.006 44.9929 140.032 44.9739 140.062 44.9609C140.091 44.9479 140.123 44.9412 140.155 44.9412C140.188 44.9412 140.22 44.9479 140.249 44.9609C140.279 44.9739 140.305 44.9929 140.327 45.0168L141.266 45.903L141.811 44.736C141.824 44.7058 141.843 44.6785 141.867 44.6559C141.89 44.6333 141.918 44.6157 141.949 44.6044C141.98 44.5931 142.012 44.5882 142.045 44.59C142.077 44.5918 142.109 44.6003 142.139 44.6149C142.19 44.642 142.231 44.6868 142.253 44.7413C142.275 44.7957 142.277 44.8563 142.259 44.9122Z" fill="#DBDBDB"/>
<path d="M145.139 44.4386L144.436 44.5707L144.877 46.9542C144.884 46.9864 144.884 47.0196 144.877 47.0517C144.871 47.0839 144.858 47.1144 144.84 47.1415C144.821 47.1687 144.798 47.1919 144.771 47.2098C144.744 47.2277 144.713 47.24 144.681 47.246C144.617 47.2573 144.551 47.243 144.497 47.206C144.443 47.169 144.405 47.1123 144.392 47.0478L143.95 44.6643L143.252 44.7964C143.189 44.8022 143.127 44.7844 143.077 44.7465C143.028 44.7086 142.993 44.6532 142.982 44.5913C142.97 44.5294 142.982 44.4653 143.015 44.4116C143.047 44.3579 143.099 44.3185 143.159 44.301L145.047 43.9432C145.109 43.9374 145.171 43.9552 145.221 43.9931C145.271 44.0311 145.305 44.0864 145.316 44.1483C145.328 44.2103 145.316 44.2744 145.283 44.328C145.251 44.3817 145.199 44.4212 145.139 44.4386Z" fill="#DBDBDB"/>
<path d="M184.013 44.4605L161.246 39.0054L168.306 9L185.469 13.1119L189.741 20.1027L184.013 44.4605Z" fill="#E0CEFF"/>
<path opacity="0.6" d="M184.013 44.4605L161.246 39.0054L168.306 9L185.469 13.1119L189.741 20.1027L184.013 44.4605Z" fill="white"/>
<path d="M189.74 20.1029L184.143 18.7653L185.468 13.1121L189.74 20.1029Z" fill="#E0CEFF"/>
<path d="M171.082 20.8349C171.003 21.1743 171.026 21.5295 171.148 21.8556C171.27 22.1817 171.484 22.4641 171.765 22.6671C172.046 22.87 172.38 22.9844 172.725 22.9957C173.07 23.007 173.411 22.9147 173.704 22.7306C173.998 22.5465 174.23 22.2787 174.373 21.9612C174.515 21.6438 174.561 21.2908 174.504 20.947C174.448 20.6033 174.292 20.2841 174.055 20.03C173.819 19.7758 173.513 19.5981 173.177 19.5193C172.954 19.4655 172.722 19.457 172.495 19.4941C172.269 19.5313 172.052 19.6134 171.857 19.7358C171.662 19.8581 171.493 20.0183 171.36 20.2069C171.227 20.3956 171.133 20.6091 171.082 20.8349Z" fill="#E0CEFF"/>
<path d="M171.911 29.0697L183.423 31.8275L179.336 23.356L171.911 29.0697Z" fill="#E0CEFF"/>
<path d="M167.394 27.9908L176.903 30.2697L173.237 24.512L167.394 27.9908Z" fill="#E0CEFF"/>
<path opacity="0.1" d="M167.394 27.9908L176.903 30.2697L173.237 24.512L167.394 27.9908Z" fill="black"/>
<path d="M183.832 32.5047L166.739 28.4093L169.658 15.991L186.767 20.0754L183.832 32.5047ZM168.054 27.5946L183.019 31.1781L185.436 20.9011L170.471 17.3176L168.054 27.5946Z" fill="#E0CEFF"/>
<path d="M169.958 34.8993C170.028 34.5929 170.184 34.3131 170.406 34.0927C170.628 33.8723 170.908 33.7205 171.213 33.6552C171.518 33.5898 171.835 33.6137 172.127 33.7239C172.419 33.8341 172.673 34.0261 172.861 34.2773C172.883 34.3035 172.9 34.334 172.91 34.3668C172.921 34.3997 172.924 34.4343 172.921 34.4687C172.918 34.503 172.909 34.5364 172.892 34.5669C172.876 34.5974 172.855 34.6243 172.828 34.6461C172.773 34.6862 172.704 34.7039 172.637 34.6957C172.569 34.6876 172.507 34.6541 172.463 34.6021C172.301 34.4 172.079 34.2569 171.83 34.1947C171.684 34.1566 171.533 34.1491 171.384 34.1728C171.236 34.1965 171.094 34.2508 170.968 34.3324C170.84 34.4049 170.728 34.5035 170.639 34.6219C170.551 34.7404 170.488 34.8761 170.455 35.0204C170.424 35.1632 170.422 35.3106 170.448 35.4543C170.474 35.5979 170.528 35.7349 170.608 35.8571C170.686 35.9856 170.789 36.0971 170.911 36.185C171.033 36.2728 171.171 36.3354 171.317 36.369C171.526 36.4243 171.746 36.4243 171.955 36.369L172.097 35.7636L171.491 35.5874C171.426 35.5717 171.369 35.5305 171.333 35.4728C171.297 35.4151 171.286 35.3455 171.3 35.2792C171.307 35.2461 171.321 35.2149 171.34 35.1873C171.36 35.1598 171.385 35.1365 171.413 35.119C171.442 35.1015 171.474 35.09 171.507 35.0854C171.54 35.0807 171.574 35.083 171.606 35.092L172.468 35.2957C172.501 35.3028 172.532 35.3165 172.56 35.3359C172.588 35.3553 172.611 35.38 172.63 35.4087C172.648 35.4373 172.66 35.4693 172.666 35.5028C172.672 35.5363 172.672 35.5707 172.664 35.6039L172.435 36.5837L172.402 36.6553C172.378 36.6968 172.339 36.7281 172.293 36.7434C171.952 36.9037 171.567 36.9407 171.202 36.848C170.783 36.753 170.417 36.4954 170.185 36.1308C169.952 35.7662 169.871 35.3239 169.958 34.8993Z" fill="#E0CEFF"/>
<path d="M173.984 34.5303C173.991 34.4981 174.003 34.4676 174.022 34.4405C174.04 34.4134 174.064 34.3904 174.092 34.3729C174.119 34.3554 174.15 34.3438 174.182 34.3386C174.214 34.3335 174.247 34.3351 174.279 34.3432C174.343 34.3589 174.399 34.3993 174.435 34.4557C174.47 34.5122 174.483 34.5804 174.47 34.6459L173.853 37.2496C173.846 37.2815 173.832 37.3116 173.813 37.3381C173.793 37.3646 173.769 37.3869 173.741 37.4038C173.713 37.4207 173.682 37.4319 173.65 37.4366C173.618 37.4413 173.585 37.4395 173.553 37.4313C173.521 37.4248 173.491 37.4119 173.464 37.3932C173.437 37.3746 173.415 37.3506 173.397 37.3228C173.38 37.295 173.368 37.2639 173.363 37.2315C173.358 37.199 173.36 37.1658 173.368 37.134L173.984 34.5303Z" fill="#E0CEFF"/>
<path d="M174.672 37.4586L175.289 34.8604C175.295 34.8282 175.308 34.7976 175.326 34.7706C175.345 34.7435 175.369 34.7205 175.396 34.703C175.424 34.6855 175.455 34.6738 175.487 34.6687C175.519 34.6636 175.552 34.6652 175.583 34.6733L176.996 35.009C177.06 35.026 177.114 35.0668 177.149 35.1231C177.183 35.1794 177.195 35.247 177.182 35.3118C177.166 35.3765 177.126 35.4325 177.07 35.4675C177.014 35.5026 176.946 35.5139 176.882 35.4989L175.698 35.2182L175.507 36.0219L176.527 36.2696C176.59 36.2852 176.644 36.3252 176.678 36.3809C176.711 36.4365 176.722 36.5034 176.707 36.5668C176.693 36.6314 176.654 36.6878 176.599 36.7238C176.544 36.7598 176.477 36.7726 176.413 36.7595L175.392 36.5118L175.141 37.5742C175.134 37.6061 175.12 37.6362 175.101 37.6627C175.081 37.6892 175.057 37.7115 175.029 37.7284C175.001 37.7453 174.97 37.7564 174.938 37.7612C174.906 37.7659 174.873 37.764 174.841 37.7558C174.781 37.7367 174.731 37.6955 174.699 37.6405C174.668 37.5854 174.658 37.5205 174.672 37.4586Z" fill="#E0CEFF"/>
<path d="M181.562 62.7852L167.874 44.7082L190.881 26.9724L201.045 40.3981L200.183 48.4347L181.562 62.7852Z" fill="#EBEBEB"/>
<path d="M201.046 40.3984L200.184 48.4351L196.659 43.7783L201.046 40.3984Z" fill="#DBDBDB"/>
<path d="M187.753 32.1676L195.364 42.2192L195.954 41.7647L188.343 31.7131L187.753 32.1676Z" fill="#DBDBDB"/>
<path d="M186.258 33.3163L193.869 43.3679L194.459 42.9134L186.847 32.8618L186.258 33.3163Z" fill="#DBDBDB"/>
<path d="M184.768 34.4669L192.379 44.5186L192.968 44.0641L185.357 34.0124L184.768 34.4669Z" fill="#DBDBDB"/>
<path d="M183.283 35.6187L194.435 50.3462L195.024 49.8917L183.872 35.1642L183.283 35.6187Z" fill="#DBDBDB"/>
<path d="M181.791 36.7642L192.943 51.4917L193.533 51.0372L182.381 36.3097L181.791 36.7642Z" fill="#DBDBDB"/>
<path d="M180.297 37.9126L191.449 52.6401L192.039 52.1856L180.887 37.4581L180.297 37.9126Z" fill="#DBDBDB"/>
<path d="M178.806 39.0632L189.958 53.7908L190.548 53.3363L179.396 38.6087L178.806 39.0632Z" fill="#DBDBDB"/>
<path d="M177.319 40.2129L188.471 54.9404L189.06 54.4859L177.908 39.7584L177.319 40.2129Z" fill="#DBDBDB"/>
<path d="M175.828 41.3584L186.98 56.0859L187.57 55.6315L176.418 40.9039L175.828 41.3584Z" fill="#DBDBDB"/>
<path d="M174.334 42.512L185.486 57.2395L186.076 56.785L174.924 42.0575L174.334 42.512Z" fill="#DBDBDB"/>
<path d="M172.847 43.6616L183.999 58.3892L184.589 57.9347L173.437 43.2071L172.847 43.6616Z" fill="#DBDBDB"/>
<path d="M171.356 44.8071L182.508 59.5347L183.097 59.0802L171.945 44.3527L171.356 44.8071Z" fill="#DBDBDB"/>
<path d="M173.934 50.0145L151.042 54.9081L144.708 24.7375L161.964 21.0439L168.795 25.5247L173.934 50.0145Z" fill="#455A64"/>
<path d="M168.795 25.5247L163.16 26.7302L161.965 21.0439L168.795 25.5247Z" fill="#263238"/>
<path d="M156.023 38.7358C156.092 38.7819 156.152 38.8412 156.198 38.9105C156.244 38.9798 156.276 39.0576 156.292 39.1395C156.309 39.2213 156.309 39.3056 156.292 39.3875C156.276 39.4694 156.244 39.5472 156.198 39.6165C156.103 39.7524 155.961 39.8468 155.8 39.8807C155.634 39.9121 155.463 39.8807 155.32 39.7926L152.046 37.5358C152.013 37.5358 152.003 37.5358 151.986 37.4862H151.953C151.926 37.4862 151.926 37.4367 151.91 37.4092C151.901 37.4068 151.894 37.4026 151.887 37.3969C151.881 37.3912 151.875 37.3841 151.872 37.3761C151.872 37.3761 151.872 37.3321 151.839 37.3211C151.806 37.3101 151.839 37.2881 151.812 37.2771V37.211C151.81 37.1909 151.81 37.1706 151.812 37.1505V37.1009V37.0349C151.812 37.0349 151.812 37.0018 151.812 36.9908C151.809 36.9634 151.809 36.9357 151.812 36.9083C151.812 36.9083 151.812 36.8367 151.839 36.8092C151.847 36.7803 151.862 36.7539 151.883 36.7321L154.065 33.4018C154.161 33.2667 154.306 33.1738 154.468 33.1421C154.63 33.1104 154.798 33.1423 154.938 33.2312C155.006 33.2777 155.065 33.3374 155.111 33.4069C155.156 33.4764 155.188 33.5543 155.204 33.6361C155.219 33.718 155.219 33.8021 155.202 33.8838C155.186 33.9654 155.153 34.043 155.107 34.1119L153.257 36.9027L156.023 38.7358Z" fill="white"/>
<path d="M157.671 39.1103L159.128 32.0809C159.163 31.9178 159.261 31.7753 159.4 31.6846C159.539 31.5938 159.708 31.5622 159.87 31.5965C159.948 31.6141 160.021 31.647 160.086 31.6933C160.152 31.7397 160.207 31.7985 160.25 31.8665C160.292 31.9346 160.321 32.0104 160.335 32.0897C160.348 32.169 160.346 32.2502 160.328 32.3286L158.882 39.369C158.854 39.4878 158.793 39.5961 158.706 39.681C158.619 39.7659 158.51 39.8238 158.391 39.8479C158.316 39.8643 158.238 39.8643 158.162 39.8479C158.081 39.8342 158.003 39.8039 157.934 39.7589C157.865 39.7138 157.805 39.6549 157.759 39.5859C157.713 39.5168 157.682 39.439 157.667 39.3572C157.651 39.2755 157.653 39.1914 157.671 39.1103Z" fill="white"/>
<path d="M166.177 34.7065C166.163 34.7346 166.144 34.7606 166.123 34.7835L163.94 38.1138C163.847 38.2532 163.703 38.3495 163.539 38.3815C163.375 38.4135 163.206 38.3786 163.067 38.2844C162.929 38.1903 162.834 38.0446 162.802 37.8794C162.77 37.7142 162.805 37.5431 162.898 37.4037L164.748 34.6074L161.993 32.7248C161.854 32.6299 161.758 32.4832 161.726 32.317C161.695 32.1508 161.73 31.9788 161.823 31.8386C161.919 31.7023 162.063 31.6086 162.226 31.5768C162.389 31.545 162.557 31.5777 162.696 31.668L165.97 33.9248C165.999 33.9399 166.027 33.9584 166.052 33.9799C166.052 33.9799 166.101 34.0294 166.117 34.0569C166.132 34.0835 166.148 34.1092 166.166 34.134C166.166 34.134 166.166 34.134 166.166 34.167V34.2331C166.165 34.2477 166.165 34.2625 166.166 34.2771C166.164 34.2954 166.164 34.3139 166.166 34.3322V34.4092C166.166 34.4092 166.166 34.4808 166.166 34.5028C166.166 34.5248 166.166 34.5028 166.166 34.5358C166.166 34.5689 166.188 34.6349 166.177 34.7065Z" fill="white"/>
<path d="M155.98 48.622L155.435 46.0073C155.422 45.9732 155.417 45.9368 155.42 45.9005C155.422 45.8642 155.433 45.8289 155.45 45.797C155.467 45.7651 155.491 45.7373 155.52 45.7156C155.549 45.6939 155.582 45.6787 155.618 45.6711C155.653 45.6635 155.689 45.6637 155.724 45.6716C155.76 45.6795 155.793 45.695 155.822 45.717C155.85 45.7389 155.874 45.7669 155.891 45.799C155.908 45.831 155.918 45.8664 155.92 45.9027L156.144 46.9651L157.284 46.7229L157.061 45.6605C157.053 45.6284 157.053 45.595 157.058 45.5626C157.064 45.5301 157.076 45.4991 157.094 45.4714C157.112 45.4437 157.135 45.4199 157.162 45.4013C157.189 45.3827 157.219 45.3698 157.252 45.3633C157.317 45.35 157.384 45.3627 157.44 45.3986C157.496 45.4345 157.536 45.4909 157.552 45.556L158.097 48.1706C158.105 48.2029 158.107 48.2364 158.101 48.2692C158.096 48.302 158.084 48.3333 158.066 48.3611C158.048 48.389 158.024 48.4129 157.997 48.4312C157.97 48.4496 157.939 48.4621 157.906 48.4679C157.874 48.4751 157.841 48.4759 157.809 48.4701C157.777 48.4643 157.746 48.452 157.719 48.4341C157.691 48.4162 157.668 48.3928 157.649 48.3656C157.631 48.3383 157.618 48.3076 157.612 48.2752L157.388 47.2128L156.248 47.455L156.471 48.5174C156.484 48.5831 156.471 48.6512 156.434 48.7069C156.397 48.7626 156.34 48.8014 156.275 48.8147C156.243 48.8227 156.21 48.8241 156.177 48.8186C156.145 48.8132 156.114 48.801 156.086 48.783C156.059 48.7649 156.035 48.7413 156.017 48.7136C155.998 48.6859 155.986 48.6547 155.98 48.622Z" fill="white"/>
<path d="M160.481 45.1652L159.783 45.3138L160.279 47.6808C160.286 47.713 160.287 47.7463 160.281 47.7788C160.276 47.8113 160.264 47.8423 160.246 47.87C160.228 47.8977 160.205 47.9215 160.178 47.9401C160.151 47.9586 160.12 47.9715 160.088 47.9781C160.024 47.9912 159.957 47.9784 159.902 47.9424C159.847 47.9064 159.808 47.85 159.794 47.7854L159.297 45.4184L158.604 45.5671C158.539 45.58 158.472 45.5665 158.416 45.5293C158.361 45.4922 158.323 45.4345 158.31 45.3689C158.303 45.3367 158.302 45.3034 158.308 45.2709C158.313 45.2384 158.325 45.2074 158.343 45.1797C158.361 45.1521 158.384 45.1282 158.411 45.1097C158.438 45.0911 158.469 45.0782 158.501 45.0716L160.377 44.6698C160.442 44.6567 160.509 44.6695 160.564 44.7055C160.619 44.7415 160.658 44.7979 160.672 44.8625C160.685 44.9281 160.673 44.9962 160.637 45.0527C160.601 45.1091 160.546 45.1495 160.481 45.1652Z" fill="white"/>
<path d="M164.044 44.1633L164.59 46.7835C164.601 46.849 164.587 46.9164 164.55 46.9718C164.514 47.0271 164.457 47.0661 164.393 47.0807C164.329 47.0938 164.262 47.081 164.207 47.045C164.152 47.009 164.113 46.9526 164.099 46.888L163.706 45.0165L163.258 46.0403C163.243 46.077 163.22 46.1094 163.189 46.1344C163.159 46.1594 163.122 46.1763 163.084 46.1835C163.044 46.1914 163.002 46.1901 162.962 46.1796C162.923 46.1691 162.886 46.1497 162.855 46.1229L162.042 45.3688L162.435 47.2403C162.441 47.2725 162.441 47.3057 162.434 47.3378C162.428 47.37 162.415 47.4005 162.397 47.4277C162.379 47.4548 162.355 47.478 162.328 47.4959C162.301 47.5138 162.27 47.5261 162.238 47.5321C162.207 47.5393 162.175 47.5402 162.143 47.5347C162.112 47.5292 162.081 47.5174 162.054 47.5C162.028 47.4825 162.004 47.4598 161.986 47.4332C161.968 47.4066 161.955 47.3766 161.949 47.3449L161.403 44.7248C161.39 44.6599 161.403 44.5924 161.439 44.5368C161.475 44.4813 161.53 44.442 161.594 44.4275C161.633 44.4182 161.673 44.4189 161.711 44.4295C161.749 44.4401 161.784 44.4602 161.813 44.488L162.942 45.5229L163.558 44.1137C163.575 44.0772 163.6 44.0451 163.631 44.0202C163.663 43.9953 163.699 43.9783 163.738 43.9706C163.804 43.9557 163.873 43.9676 163.93 44.0037C163.988 44.0397 164.028 44.0971 164.044 44.1633Z" fill="white"/>
<path d="M165.659 46.5525L165.113 43.9379C165.1 43.873 165.113 43.8055 165.149 43.75C165.184 43.6944 165.24 43.6552 165.304 43.6406C165.369 43.6274 165.437 43.64 165.493 43.6759C165.549 43.7119 165.589 43.7683 165.604 43.8333L166.101 46.2003L167.29 45.9471C167.355 45.9341 167.423 45.9476 167.478 45.9848C167.533 46.0219 167.572 46.0796 167.585 46.1452C167.598 46.2094 167.585 46.2762 167.549 46.3309C167.513 46.3856 167.457 46.4237 167.394 46.437L165.97 46.7452C165.937 46.756 165.902 46.7594 165.868 46.7553C165.833 46.7511 165.8 46.7395 165.77 46.7212C165.741 46.7028 165.716 46.6783 165.696 46.6492C165.677 46.6201 165.664 46.5871 165.659 46.5525Z" fill="white"/>
<path d="M120 105.743H203.789L214.258 49.4314H130.469L120 105.743Z" fill="#E0CEFF"/>
<path d="M184.235 43.5964H215.343L214.258 49.4313H181.365L184.235 43.5964Z" fill="#E0CEFF"/>
<path d="M184.306 85.5631L150.438 87.8145L152.614 67.5631L186.483 65.3118L184.306 85.5631Z" fill="white"/>
<path d="M150.399 64.9762L153.029 63.3413L155.648 68.8954L153.018 70.5303L150.399 64.9762Z" fill="#DBDBDB"/>
<path d="M181.961 83.5539L184.591 81.9246L187.209 87.4787L184.58 89.108L181.961 83.5539Z" fill="#DBDBDB"/>
<path d="M189.898 62.4879L187.58 61.1833L183.723 67.1668L186.036 68.4714L189.898 62.4879Z" fill="#DBDBDB"/>
<path d="M153.885 85.2826L151.572 83.978L147.709 89.967L150.028 91.2661L153.885 85.2826Z" fill="#DBDBDB"/>
<path d="M166.936 73.5302L162.026 79.7613L165.746 79.5136C165.827 79.508 165.908 79.5206 165.983 79.5504C166.059 79.5803 166.126 79.6266 166.182 79.6862C166.237 79.7457 166.279 79.8169 166.303 79.8947C166.328 79.9724 166.335 80.0547 166.325 80.1356C166.3 80.3168 166.215 80.4843 166.085 80.6111C165.954 80.7379 165.785 80.8167 165.605 80.8347L160.623 81.165C160.585 81.1703 160.547 81.1703 160.509 81.165C160.509 81.165 160.482 81.165 160.476 81.165H160.394C160.394 81.165 160.394 81.165 160.362 81.132H160.307H160.263C160.258 81.1344 160.253 81.1357 160.247 81.1357C160.241 81.1357 160.236 81.1344 160.231 81.132C160.214 81.1159 160.199 81.0973 160.187 81.0769C160.171 81.0686 160.156 81.0575 160.143 81.0439C160.136 81.0263 160.127 81.0096 160.116 80.9944C160.116 80.9613 160.116 80.9503 160.116 80.9393C160.116 80.9283 160.083 80.9063 160.116 80.8843C160.149 80.8623 160.116 80.8347 160.116 80.8127C160.116 80.7907 160.116 80.8127 160.116 80.7632C160.116 80.7136 160.116 80.7081 160.116 80.6806C160.119 80.6697 160.119 80.6584 160.116 80.6476C160.109 80.6205 160.109 80.5921 160.116 80.565C160.114 80.5449 160.114 80.5246 160.116 80.5045C160.116 80.5045 160.116 80.4659 160.149 80.4439C160.148 80.4237 160.148 80.4035 160.149 80.3834C160.167 80.3718 160.18 80.3543 160.187 80.3338L160.231 80.2677L165.141 74.0256L161.409 74.2733C161.331 74.2739 161.254 74.2577 161.183 74.2257C161.111 74.1937 161.048 74.1466 160.996 74.0876C160.944 74.0287 160.906 73.9592 160.883 73.8839C160.86 73.8087 160.853 73.7293 160.864 73.6513C160.885 73.4706 160.967 73.3028 161.096 73.1757C161.225 73.0485 161.393 72.9697 161.573 72.9522L166.554 72.6219H166.647H166.69C166.723 72.6219 166.734 72.6219 166.756 72.6219C166.778 72.6219 166.794 72.6219 166.805 72.6219C166.815 72.6199 166.825 72.6216 166.834 72.6266C166.843 72.6317 166.85 72.6397 166.854 72.6494L166.908 72.6824C166.908 72.6824 166.908 72.6824 166.941 72.7155C166.974 72.7485 166.974 72.7485 166.985 72.7595C166.996 72.7705 166.985 72.7925 167.012 72.8035C167.031 72.8124 167.047 72.828 167.056 72.8476C167.059 72.8699 167.069 72.8908 167.083 72.9081C167.083 72.9081 167.083 72.9412 167.083 72.9522C167.079 72.9759 167.079 73 167.083 73.0237C167.083 73.0237 167.083 73.0568 167.083 73.0843C167.085 73.1062 167.085 73.1284 167.083 73.1503C167.08 73.1667 167.08 73.1835 167.083 73.1999C167.083 73.2384 167.083 73.2604 167.083 73.2824C167.078 73.2986 167.078 73.3159 167.083 73.332C167.083 73.365 167.083 73.3815 167.05 73.4035L167.023 73.4751C167.023 73.4751 167.023 73.5026 166.996 73.5136C166.985 73.5365 166.97 73.5571 166.952 73.5742L166.936 73.5302Z" fill="#37474F"/>
<path d="M169.003 73.0016C169.023 72.8217 169.104 72.6542 169.232 72.5277C169.36 72.4012 169.528 72.3236 169.707 72.3081C169.786 72.3028 169.865 72.3151 169.939 72.344C170.013 72.3729 170.08 72.4177 170.135 72.4754C170.19 72.533 170.232 72.6021 170.258 72.6778C170.284 72.7535 170.293 72.8339 170.285 72.9136L169.532 79.9264C169.506 80.1066 169.421 80.2728 169.291 80.3985C169.16 80.5242 168.992 80.6022 168.812 80.62C168.734 80.6264 168.655 80.6145 168.581 80.5851C168.508 80.5557 168.442 80.5097 168.39 80.4506C168.337 80.3915 168.298 80.3209 168.277 80.2443C168.256 80.1677 168.252 80.0872 168.267 80.009L169.003 73.0016Z" fill="#37474F"/>
<path d="M174.677 77.0257L173.253 77.1193L172.975 79.6955C172.95 79.8758 172.866 80.0426 172.737 80.1693C172.607 80.296 172.439 80.3753 172.26 80.3945C172.183 80.395 172.107 80.379 172.036 80.3477C171.966 80.3163 171.903 80.2702 171.851 80.2125C171.8 80.1548 171.761 80.0868 171.737 80.0128C171.714 79.9389 171.706 79.8607 171.714 79.7835L172.467 72.7707C172.491 72.5914 172.574 72.4255 172.702 72.2996C172.831 72.1737 172.998 72.0954 173.176 72.0771L175.233 71.9395C175.545 71.9079 175.86 71.9493 176.153 72.0607C176.447 72.1721 176.711 72.3503 176.925 72.5816C177.139 72.8128 177.297 73.0908 177.386 73.3938C177.476 73.6968 177.496 74.0167 177.443 74.3285C177.35 75.0267 177.027 75.673 176.525 76.1626C176.023 76.6521 175.371 76.9563 174.677 77.0257ZM173.395 75.7982L174.819 75.7046C175.152 75.6708 175.465 75.5249 175.706 75.2903C175.947 75.0557 176.104 74.746 176.15 74.4111C176.176 74.2585 176.166 74.1019 176.121 73.9538C176.076 73.8058 175.997 73.6704 175.891 73.5586C175.785 73.4467 175.655 73.3615 175.51 73.3097C175.365 73.258 175.211 73.2412 175.059 73.2606L173.635 73.3542L173.395 75.7982Z" fill="#37474F"/>
</svg>
