<svg width="21" height="18" viewBox="0 0 21 18" fill="none" xmlns="http://www.w3.org/2000/svg">
  <path
    d="M15.7159 12.8052L8.40204 5.64389C7.48428 4.74527 6.16218 4.5823 5.24348 5.48092C4.32572 6.37955 4.49122 7.675 5.40992 8.57362L13.0567 16.0609C14.3863 17.3628 17.0465 17.3628 18.708 15.735C20.3705 14.1071 20.3705 11.5034 19.0409 10.2015L11.3942 2.71416C10.2444 1.60885 8.69534 0.992814 7.08405 1.00006C5.47276 1.00731 3.92957 1.63726 2.7902 2.75287C1.65084 3.86848 1.00747 5.37949 1.00006 6.95718C0.99266 8.53487 1.62182 10.0516 2.75067 11.1774L7.07242 15.409"
    stroke="#8D8F98" stroke-width="1.5" stroke-linecap="round" stroke-linejoin="round" />
</svg>
  