<svg fill="none" xmlns="http://www.w3.org/2000/svg" viewBox="0.18 0.02 40.53 21.01">
  <path
    d="M5.35754 20.8368L13.6033 17.6568L13.6263 17.6482C14.0483 17.4771 14.421 17.2035 14.7107 16.8521C15.0003 16.5007 15.1978 16.0827 15.2852 15.6358C15.2958 15.5834 15.3032 15.5304 15.3076 15.4771L15.7206 10.0171C18.4902 9.04621 22.3299 9.01651 25.0827 9.94139L25.5802 15.4462C25.5865 15.5006 25.5939 15.5539 25.605 15.6083C25.6991 16.0499 25.9009 16.4615 26.1925 16.8063C26.484 17.1511 26.8563 17.4184 27.2761 17.5846L27.2907 17.5991L35.5783 20.7161C36.1288 20.9312 36.734 20.9625 37.3037 20.8054C37.8734 20.6482 38.3769 20.311 38.7393 19.8442C40.1564 17.9824 40.8473 15.6684 40.6831 13.3345C40.5188 11.0005 39.5105 8.8061 37.8466 7.16118C28.197 -2.41243 12.557 -2.35063 2.98343 7.29893C1.33255 8.95695 0.341671 11.1592 0.19585 13.4944C0.0500304 15.8296 0.759242 18.1381 2.19103 19.9886C2.55678 20.4525 3.06273 20.7858 3.63339 20.9387C4.20406 21.0915 4.80885 21.0558 5.35754 20.8368ZM4.92793 9.22812C9.02428 5.10827 14.5876 2.78163 20.3974 2.75867C26.2071 2.73572 31.7886 5.01832 35.9174 9.10567C37.1087 10.2785 37.8324 11.8449 37.9532 13.5123C38.0741 15.1797 37.5839 16.834 36.5742 18.1664C36.5698 18.1611 36.565 18.1563 36.5596 18.152L28.3156 15.0371L27.8012 9.54206C27.7972 9.48746 27.7889 9.43326 27.7764 9.37995C27.6772 8.91863 27.4605 8.49077 27.1473 8.13782C26.8342 7.78486 26.4351 7.5188 25.9889 7.3654C22.6445 6.23223 18.1414 6.26697 14.7832 7.45204C14.3374 7.61253 13.9408 7.88592 13.6322 8.24551C13.3237 8.6051 13.1137 9.03858 13.0227 9.50361C13.0128 9.55567 13.0057 9.60823 13.0016 9.66107L12.5909 15.1162L4.36572 18.2901L4.35246 18.3034C3.3287 16.9793 2.82243 15.3276 2.92835 13.6572C3.03426 11.9869 3.74512 10.4123 4.92793 9.22812Z"
    fill="currentColor"></path>
</svg>