<svg width="42" height="41" viewBox="0 0 42 41" fill="none" xmlns="http://www.w3.org/2000/svg">
  <g clip-path="url(#clip0_82_1166)">
    <path
      d="M6.35754 26.8368L14.6033 23.6568L14.6263 23.6482C15.0483 23.4771 15.421 23.2035 15.7107 22.8521C16.0003 22.5007 16.1978 22.0827 16.2852 21.6358C16.2958 21.5834 16.3032 21.5304 16.3076 21.4771L16.7206 16.0171C19.4902 15.0462 23.3299 15.0165 26.0827 15.9414L26.5802 21.4462C26.5865 21.5006 26.5939 21.5539 26.605 21.6083C26.6991 22.0499 26.9009 22.4615 27.1925 22.8063C27.484 23.1511 27.8563 23.4184 28.2761 23.5846L28.2907 23.5991L36.5783 26.7161C37.1288 26.9312 37.734 26.9625 38.3037 26.8054C38.8734 26.6482 39.3769 26.311 39.7393 25.8442C41.1564 23.9824 41.8473 21.6684 41.6831 19.3345C41.5188 17.0005 40.5105 14.8061 38.8466 13.1612C29.197 3.58757 13.557 3.64937 3.98343 13.2989C2.33255 14.957 1.34167 17.1592 1.19585 19.4944C1.05003 21.8296 1.75924 24.1381 3.19103 25.9886C3.55678 26.4525 4.06273 26.7858 4.63339 26.9387C5.20406 27.0915 5.80885 27.0558 6.35754 26.8368ZM5.92793 15.2281C10.0243 11.1083 15.5876 8.78163 21.3974 8.75867C27.2071 8.73572 32.7886 11.0183 36.9174 15.1057C38.1087 16.2785 38.8324 17.8449 38.9532 19.5123C39.0741 21.1797 38.5839 22.834 37.5742 24.1664C37.5698 24.1611 37.565 24.1563 37.5596 24.152L29.3156 21.0371L28.8012 15.5421C28.7972 15.4875 28.7889 15.4333 28.7764 15.3799C28.6772 14.9186 28.4605 14.4908 28.1473 14.1378C27.8342 13.7849 27.4351 13.5188 26.9889 13.3654C23.6445 12.2322 19.1414 12.267 15.7832 13.452C15.3374 13.6125 14.9408 13.8859 14.6322 14.2455C14.3237 14.6051 14.1137 15.0386 14.0227 15.5036C14.0128 15.5557 14.0057 15.6082 14.0016 15.6611L13.5909 21.1162L5.36572 24.2901L5.35246 24.3034C4.3287 22.9793 3.82243 21.3276 3.92835 19.6572C4.03426 17.9869 4.74512 16.4123 5.92793 15.2281Z"
      fill="currentColor" />
  </g>
  <defs>
    <clipPath id="clip0_82_1166">
      <rect width="42" height="40.1739" fill="white" />
    </clipPath>
  </defs>
</svg>
  