<svg width="30" height="30" viewBox="0 0 30 30" fill="none" xmlns="http://www.w3.org/2000/svg">
  <path
    d="M1.6665 15.0001C1.6665 8.71475 1.6665 5.57208 3.6185 3.61875C5.57317 1.66675 8.7145 1.66675 14.9998 1.66675C21.2852 1.66675 24.4278 1.66675 26.3798 3.61875C28.3332 5.57341 28.3332 8.71475 28.3332 15.0001C28.3332 21.2854 28.3332 24.4281 26.3798 26.3801C24.4292 28.3334 21.2852 28.3334 14.9998 28.3334C8.7145 28.3334 5.57184 28.3334 3.6185 26.3801C1.6665 24.4294 1.6665 21.2854 1.6665 15.0001Z"
    stroke="currentColor" stroke-width="2" />
  <path d="M18.3332 11.6667L11.6665 18.3334M11.6665 11.6667L18.3332 18.3334" stroke="currentColor"
    stroke-width="2" stroke-linecap="round" />
</svg>
  