<svg width="97" height="98" viewBox="0 0 97 98" fill="none" xmlns="http://www.w3.org/2000/svg">
  <path
    d="M61.8148 80.9431C70.1506 68.2657 68.749 51.0552 57.6101 39.9022C46.3773 28.6553 28.9921 27.323 16.3016 35.9052M61.8148 80.9431C60.615 82.7679 59.2134 84.4987 57.6101 86.1041C50.198 93.5255 34.4797 99.9419 21.7226 92.0483C21.0126 91.6091 20.6577 91.3894 20.3893 91.283C19.8761 91.0795 19.4869 91.0207 18.9366 91.0632C18.6488 91.0855 18.3226 91.1701 17.6704 91.3394C13.5664 92.4045 11.5144 92.937 10.0361 92.6357C7.47028 92.1129 5.46504 90.1051 4.94286 87.5361C4.642 86.0559 5.17386 84.0013 6.23758 79.8921C6.40666 79.239 6.49121 78.9124 6.51336 78.6233C6.55559 78.0722 6.49558 77.678 6.29137 77.1646C6.18422 76.8952 5.96517 76.5423 5.52707 75.8364C-2.38366 63.091 3.73856 47.6397 11.4663 39.9022C12.9757 38.3909 14.5963 37.0585 16.3016 35.9052M61.8148 80.9431L62.5001 80.8257C65.4009 80.1291 68.265 78.9749 71.0156 77.2729C71.8777 76.7395 72.3087 76.4728 72.6347 76.3436C73.2578 76.0965 73.7304 76.025 74.3986 76.0767C74.7481 76.1038 75.1441 76.2065 75.9361 76.4121C80.9195 77.7054 83.4112 78.352 85.2063 77.9862C88.322 77.3513 90.7569 74.9133 91.391 71.7938C91.7563 69.9964 91.1105 67.5016 89.8188 62.5118C89.6135 61.7187 89.5108 61.3221 89.4839 60.9711C89.4327 60.302 89.5055 59.8233 89.7535 59.1998C89.8836 58.8727 90.1496 58.4441 90.6816 57.5871C100.287 42.1105 92.8534 23.3481 83.4697 13.9527C67.997 -1.53956 42.9107 -1.53956 27.438 13.9527C21.2556 20.1428 17.5435 27.8697 16.3016 35.9052"
    stroke="currentColor" stroke-width="3" />
  <path
    d="M43.8334 63.0002C43.8334 65.5775 45.9228 67.6668 48.5001 67.6668C51.0774 67.6668 53.1667 65.5775 53.1667 63.0002C53.1667 60.4228 51.0774 58.3335 48.5001 58.3335C45.9228 58.3335 43.8334 60.4228 43.8334 63.0002Z"
    fill="currentColor" />
  <path
    d="M29.8334 63.0002C29.8334 65.5775 31.9228 67.6668 34.5001 67.6668C37.0774 67.6668 39.1667 65.5775 39.1667 63.0002C39.1667 60.4228 37.0774 58.3335 34.5001 58.3335C31.9228 58.3335 29.8334 60.4228 29.8334 63.0002Z"
    fill="currentColor" />
  <path
    d="M15.8334 63.0002C15.8334 65.5775 17.9228 67.6668 20.5001 67.6668C23.0774 67.6668 25.1667 65.5775 25.1667 63.0002C25.1667 60.4228 23.0774 58.3335 20.5001 58.3335C17.9228 58.3335 15.8334 60.4228 15.8334 63.0002Z"
    fill="currentColor" />
</svg>