<svg width="28" height="28" viewBox="0 0 28 28" fill="none" xmlns="http://www.w3.org/2000/svg">
  <g clip-path="url(#clip0_82_1160)">
    <path
      d="M11.4252 14.9252C11.6351 14.7159 11.9168 14.5944 12.2131 14.5854C12.5094 14.5764 12.798 14.6804 13.0203 14.8765C13.2427 15.0725 13.382 15.3458 13.4101 15.6409C13.4382 15.936 13.353 16.2307 13.1717 16.4652L13.0748 16.5748L7.483 22.1667H10.5C10.7974 22.167 11.0834 22.2809 11.2996 22.485C11.5158 22.6891 11.6459 22.9681 11.6634 23.265C11.6808 23.5618 11.5842 23.8541 11.3934 24.0821C11.2025 24.3102 10.9318 24.4567 10.6365 24.4918L10.5 24.5H4.66667C4.38091 24.5 4.10511 24.3951 3.89157 24.2052C3.67803 24.0153 3.5416 23.7536 3.50817 23.4698L3.5 23.3333V17.5C3.50033 17.2026 3.61419 16.9166 3.81832 16.7004C4.02245 16.4842 4.30145 16.3541 4.59829 16.3366C4.89514 16.3192 5.18744 16.4158 5.41547 16.6066C5.6435 16.7975 5.79005 17.0682 5.82517 17.3635L5.83333 17.5V20.517L11.4252 14.9252ZM23.3333 3.5C23.6191 3.50004 23.8949 3.60495 24.1084 3.79483C24.322 3.98472 24.4584 4.24637 24.4918 4.53017L24.5 4.66667V10.5C24.4997 10.7974 24.3858 11.0834 24.1817 11.2996C23.9775 11.5158 23.6986 11.6459 23.4017 11.6634C23.1049 11.6808 22.8126 11.5842 22.5845 11.3934C22.3565 11.2025 22.21 10.9318 22.1748 10.6365L22.1667 10.5V7.483L16.5748 13.0748C16.3649 13.2841 16.0832 13.4056 15.7869 13.4146C15.4906 13.4236 15.202 13.3196 14.9797 13.1235C14.7573 12.9275 14.618 12.6542 14.5899 12.3591C14.5618 12.064 14.647 11.7693 14.8283 11.5348L14.9252 11.4252L20.517 5.83333H17.5C17.2026 5.833 16.9166 5.71914 16.7004 5.51501C16.4842 5.31088 16.3541 5.03189 16.3366 4.73504C16.3192 4.43819 16.4158 4.14589 16.6066 3.91786C16.7975 3.68983 17.0682 3.54329 17.3635 3.50817L17.5 3.5H23.3333Z"
      fill="currentColor" />
  </g>
  <defs>
    <clipPath id="clip0_82_1160">
      <rect width="28" height="28" fill="currentColor" />
    </clipPath>
  </defs>
</svg>
  