<svg width="52" height="47" viewBox="0 0 52 47" fill="none" xmlns="http://www.w3.org/2000/svg">
  <path
    d="M43.3333 46.0417H8.125C5.97012 46.0417 3.90349 45.1856 2.37976 43.6619C0.856025 42.1382 0 40.0716 0 37.9167V8.125C0 5.97012 0.856025 3.90349 2.37976 2.37976C3.90349 0.856025 5.97012 0 8.125 0H43.3333C45.4882 0 47.5548 0.856025 49.0786 2.37976C50.6023 3.90349 51.4583 5.97012 51.4583 8.125V37.9167C51.4583 40.0716 50.6023 42.1382 49.0786 43.6619C47.5548 45.1856 45.4882 46.0417 43.3333 46.0417ZM43.3333 43.3333C44.7699 43.3333 46.1477 42.7627 47.1635 41.7468C48.1793 40.731 48.75 39.3533 48.75 37.9167V8.125C48.75 6.68841 48.1793 5.31066 47.1635 4.29484C46.1477 3.27902 44.7699 2.70833 43.3333 2.70833H8.125C6.68841 2.70833 5.31066 3.27902 4.29484 4.29484C3.27902 5.31066 2.70833 6.68841 2.70833 8.125V37.9167C2.70833 39.3533 3.27902 40.731 4.29484 41.7468C5.31066 42.7627 6.68841 43.3333 8.125 43.3333H43.3333ZM29.7917 35.2083H10.8333V16.25H13.5417V30.5771L32.9062 11.2396L34.8021 13.1354L15.4646 32.5H29.7917V35.2083Z"
    fill="currentColor" />
</svg>
  