<svg width="22" height="22" viewBox="0 0 22 22" fill="none" xmlns="http://www.w3.org/2000/svg">
  <path
    d="M12.2 0.200195C13.4895 0.201776 14.7654 0.463116 15.9517 0.968616C17.1379 1.47412 18.2102 2.21342 19.1044 3.1424C19.9987 4.07138 20.6967 5.171 21.1567 6.37563C21.6166 7.58026 21.8292 8.86522 21.7817 10.1538C21.7342 11.4424 21.4276 12.7082 20.8802 13.8757C20.3328 15.0432 19.5558 16.0885 18.5955 16.9491C17.6353 17.8097 16.5115 18.4681 15.2913 18.8849C14.071 19.3017 12.7793 19.4683 11.4932 19.375C11.6839 18.9979 11.8378 18.6032 11.9528 18.1966C13.6346 18.2463 15.2926 17.7899 16.7119 16.8864C18.1313 15.9829 19.2466 14.6739 19.9134 13.1292C20.5801 11.5844 20.7677 9.87502 20.4516 8.22245C20.1356 6.56988 19.3306 5.05029 18.1408 3.86057C16.9511 2.67085 15.4315 1.86582 13.779 1.54978C12.1264 1.23375 10.417 1.42127 8.87223 2.08805C7.32747 2.75483 6.01854 3.87014 5.11503 5.28949C4.21152 6.70884 3.75507 8.36681 3.80481 10.0486C3.39756 10.1624 3.00246 10.316 2.62521 10.507C2.528 9.19026 2.70345 7.86763 3.14059 6.62178C3.57772 5.37593 4.26715 4.23365 5.16577 3.26633C6.06439 2.299 7.15289 1.52745 8.36322 0.999878C9.57355 0.472311 10.8797 0.200078 12.2 0.200195ZM11.6 3.8002C11.7404 3.80015 11.8764 3.84936 11.9843 3.93926C12.0922 4.02916 12.1651 4.15406 12.1904 4.29219L12.2 4.4002V9.80019H15.2C15.3499 9.79992 15.4946 9.85579 15.6054 9.95681C15.7162 10.0578 15.7851 10.1967 15.7987 10.346C15.8122 10.4953 15.7694 10.6443 15.6785 10.7636C15.5877 10.8829 15.4555 10.9639 15.308 10.9906L15.2 11.0002H11.6C11.4596 11.0002 11.3236 10.951 11.2157 10.8611C11.1078 10.7712 11.0349 10.6463 11.0096 10.5082L11 10.4002V4.4002C11 4.24107 11.0632 4.08845 11.1757 3.97593C11.2883 3.86341 11.4409 3.80019 11.6 3.8002ZM11 16.4002C11 17.8324 10.4311 19.2059 9.41839 20.2186C8.40569 21.2313 7.03218 21.8002 5.60001 21.8002C4.16784 21.8002 2.79433 21.2313 1.78164 20.2186C0.768939 19.2059 0.200012 17.8324 0.200012 16.4002C0.200012 14.968 0.768939 13.5945 1.78164 12.5818C2.79433 11.5691 4.16784 11.0002 5.60001 11.0002C7.03218 11.0002 8.40569 11.5691 9.41839 12.5818C10.4311 13.5945 11 14.968 11 16.4002ZM7.82481 15.025C7.93748 14.9123 8.00077 14.7595 8.00077 14.6002C8.00077 14.4409 7.93748 14.2881 7.82481 14.1754C7.71215 14.0627 7.55934 13.9994 7.40001 13.9994C7.24068 13.9994 7.08788 14.0627 6.97521 14.1754L5.60001 15.5518L4.22481 14.1754C4.11215 14.0627 3.95934 13.9994 3.80001 13.9994C3.64068 13.9994 3.48788 14.0627 3.37521 14.1754C3.26255 14.2881 3.19925 14.4409 3.19925 14.6002C3.19925 14.7595 3.26255 14.9123 3.37521 15.025L4.75161 16.4002L3.37521 17.7754C3.31943 17.8312 3.27518 17.8974 3.24498 17.9703C3.21479 18.0432 3.19925 18.1213 3.19925 18.2002C3.19925 18.3595 3.26255 18.5123 3.37521 18.625C3.48788 18.7377 3.64068 18.801 3.80001 18.801C3.8789 18.801 3.95703 18.7854 4.02991 18.7552C4.1028 18.725 4.16903 18.6808 4.22481 18.625L5.60001 17.2486L6.97521 18.625C7.08788 18.7377 7.24068 18.801 7.40001 18.801C7.55934 18.801 7.71215 18.7377 7.82481 18.625C7.93748 18.5123 8.00077 18.3595 8.00077 18.2002C8.00077 18.0409 7.93748 17.8881 7.82481 17.7754L6.44841 16.4002L7.82481 15.025Z"
    fill="currentColor" />
</svg>
  