<svg width="28" height="28" viewBox="0 0 28 28" fill="none" xmlns="http://www.w3.org/2000/svg">
  <path
    d="M13.9998 11.667C12.7165 11.667 11.6665 12.717 11.6665 14.0003C11.6665 15.2837 12.7165 16.3337 13.9998 16.3337C15.2832 16.3337 16.3332 15.2837 16.3332 14.0003C16.3332 12.717 15.2832 11.667 13.9998 11.667ZM20.9998 11.667C19.7165 11.667 18.6665 12.717 18.6665 14.0003C18.6665 15.2837 19.7165 16.3337 20.9998 16.3337C22.2832 16.3337 23.3332 15.2837 23.3332 14.0003C23.3332 12.717 22.2832 11.667 20.9998 11.667ZM6.99984 11.667C5.7165 11.667 4.6665 12.717 4.6665 14.0003C4.6665 15.2837 5.7165 16.3337 6.99984 16.3337C8.28317 16.3337 9.33317 15.2837 9.33317 14.0003C9.33317 12.717 8.28317 11.667 6.99984 11.667Z"
    fill="currentColor" />
</svg>