<svg width="28" height="28" viewBox="0 0 28 28" fill="none" xmlns="http://www.w3.org/2000/svg">
  <path
    d="M14.6185 23.8239H7.24516C3.5585 23.8239 2.3335 21.3739 2.3335 18.9122V9.08891C2.3335 5.40225 3.5585 4.17725 7.24516 4.17725H14.6185C18.3052 4.17725 19.5302 5.40225 19.5302 9.08891V18.9122C19.5302 22.5989 18.2935 23.8239 14.6185 23.8239Z"
    stroke="currentColor" stroke-width="2.25" stroke-linecap="round" stroke-linejoin="round" />
  <path
    d="M22.7736 19.9502L19.5303 17.6752V10.3135L22.7736 8.03849C24.3603 6.93015 25.6669 7.60682 25.6669 9.55515V18.4452C25.6669 20.3935 24.3603 21.0702 22.7736 19.9502Z"
    stroke="currentColor" stroke-width="2.25" stroke-linecap="round" stroke-linejoin="round" />
  <path
    d="M13.417 12.8335C14.3835 12.8335 15.167 12.05 15.167 11.0835C15.167 10.117 14.3835 9.3335 13.417 9.3335C12.4505 9.3335 11.667 10.117 11.667 11.0835C11.667 12.05 12.4505 12.8335 13.417 12.8335Z"
    stroke="currentColor" stroke-width="2.25" stroke-linecap="round" stroke-linejoin="round" />
</svg>